:FULLY-SPECIFIED
:FORCE-ALL-JOINTS-BE-3DOF
:DEGREES
81
root 9.27325 16.3498 -25.5806 4.17812 -7.82572 2.19077
lfemur -16.9255 2.81162 -26.8818
ltibia 28.1867 -0 0
lfoot -14.9438 9.4244 -0.00971794
ltoes -0.891716 0 0
rfemur -21.9268 1.10404 18.6155
rtibia 60.4157 -0 0
rfoot -16.5151 -12.2029 0.0449526
rtoes -11.1515 0 0
lowerback -5.06303 -1.09272 -3.66742
upperback -1.50242 -1.3198 2.61669
thorax 1.43753 -0.665977 4.69485
lowerneck -22.3876 -3.96902 -11.6629
upperneck 19.6081 -4.56208 12.038
head 10.5522 -1.55207 5.60491
lclavicle -2.00524e-14 3.18055e-15 0
lhumerus -27.2774 -12.5771 87.1088
lradius 26.4646 -0 0
lwrist 1.67871 0 0
lhand -9.56167 -22.7927 0.0225005
lfingers 7.12502 -0 0
lthumb 16.4038 6.50955 0.0130783
rclavicle -2.00524e-14 3.18055e-15 0
rhumerus -43.8433 14.0949 -89.2775
rradius 40.6077 -0 0
rwrist -21.9466 0 0
rhand -30.7132 -23.527 0.000340367
rfingers 7.12502 -0 0
rthumb -4.00614 -53.4692 0.000333014
82
root 9.29842 16.3672 -25.4508 4.13603 -7.64697 2.354
lfemur -16.1473 2.74977 -27.1129
ltibia 27.7832 -0 0
lfoot -15.1977 9.36027 -0.00436294
ltoes -0.913005 0 0
rfemur -22.8345 1.11123 18.3985
rtibia 60.9731 -0 0
rfoot -16.8021 -12.4094 0.0215507
rtoes -10.9769 0 0
lowerback -5.0393 -1.15258 -3.79303
upperback -1.50317 -1.39264 2.58896
thorax 1.43177 -0.702843 4.72778
lowerneck -22.3735 -3.97389 -11.6679
upperneck 19.6787 -4.56266 11.9909
head 10.5734 -1.55887 5.5902
lclavicle -2.00524e-14 3.18055e-15 0
lhumerus -27.0215 -12.791 87.1137
lradius 26.6678 -0 0
lwrist 1.80774 0 0
lhand -9.83695 -22.8931 0.0105669
lfingers 7.12502 -0 0
lthumb 16.1398 6.44358 0.00614506
rclavicle -2.00524e-14 3.18055e-15 0
rhumerus -43.8429 13.9289 -89.1378
rradius 40.3037 -0 0
rwrist -21.8362 0 0
rhand -30.7027 -23.3529 0.000184542
rfingers 7.12502 -0 0
rthumb -3.99598 -53.2952 0.000180083
83
root 9.32359 16.3847 -25.3211 4.10147 -7.46086 2.50374
lfemur -15.3819 2.69433 -27.3161
ltibia 27.3581 0 0
lfoot -15.4155 9.28101 0
ltoes -0.941018 0 0
rfemur -23.6641 1.14515 18.1767
rtibia 61.3726 0 0
rfoot -17.074 -12.5931 0
rtoes -10.8607 0 0
lowerback -5.02824 -1.211 -3.90958
upperback -1.50296 -1.46382 2.56402
thorax 1.43427 -0.739042 4.75856
lowerneck -22.3555 -3.98132 -11.6757
upperneck 19.7455 -4.56661 11.9463
head 10.5931 -1.56725 5.5762
lclavicle -2.00524e-14 3.18055e-15 0
lhumerus -26.802 -13.014 87.1404
lradius 26.8783 0 0
lwrist 1.9389 0 0
lhand -10.0739 -22.9826 0
lfingers 7.12502 0 0
lthumb 15.9125 6.3837 0
rclavicle -2.00524e-14 3.18055e-15 0
rhumerus -43.8526 13.7666 -89.0045
rradius 40.0196 0 0
rwrist -21.7294 0 0
rhand -30.69 -23.203 0
rfingers 7.12502 0 0
rthumb -3.98376 -53.1455 0
84
root 9.32109 16.3757 -25.1921 4.07305 -7.26074 2.64559
lfemur -14.6037 2.64088 -27.4997
ltibia 26.8864 -0 0
lfoot -15.6099 9.18076 0.00332361
ltoes -0.976881 0 0
rfemur -24.4448 1.2104 17.9408
rtibia 61.6224 -0 0
rfoot -17.339 -12.7617 -0.019966
rtoes -10.7966 0 0
lowerback -5.03002 -1.27016 -4.02169
upperback -1.50168 -1.5359 2.54061
thorax 1.44559 -0.775898 4.78809
lowerneck -22.3327 -3.99119 -11.6863
upperneck 19.8113 -4.57371 11.9028
head 10.6121 -1.57732 5.56254
lclavicle -4.69753e-14 -1.90833e-14 0
lhumerus -26.6081 -13.2539 87.1885
lradius 27.1065 -0 0
lwrist 2.07925 0 0
lhand -10.2849 -23.0659 -0.00955584
lfingers 7.12502 -0 0
lthumb 15.7101 6.32653 -0.0055814
rclavicle -4.69753e-14 -1.90833e-14 0
rhumerus -43.8718 13.6029 -88.8725
rradius 39.7494 -0 0
rwrist -21.6241 0 0
rhand -30.6759 -23.0714 -0.000186466
rfingers 7.12502 -0 0
rthumb -3.97012 -53.0141 -0.000181569
85
root 9.3186 16.3666 -25.063 4.04915 -7.04061 2.78554
lfemur -13.7881 2.58552 -27.6732
ltibia 26.3467 -0 0
lfoot -15.7952 9.05504 0.00555761
ltoes -1.02143 0 0
rfemur -25.2093 1.30892 17.6824
rtibia 61.7398 -0 0
rfoot -17.6055 -12.9236 -0.0388831
rtoes -10.7598 0 0
lowerback -5.04395 -1.33217 -4.13419
upperback -1.49931 -1.61137 2.51735
thorax 1.4657 -0.814686 4.81731
lowerneck -22.3043 -4.00326 -11.6999
upperneck 19.8786 -4.58358 11.8591
head 10.6311 -1.58911 5.54887
lclavicle -4.69753e-14 -1.90833e-14 0
lhumerus -26.4277 -13.5171 87.2562
lradius 27.3616 -0 0
lwrist 2.23531 0 0
lhand -10.4841 -23.1483 -0.0186302
lfingers 7.12502 -0 0
lthumb 15.5189 6.26856 -0.0109288
rclavicle -4.69753e-14 -1.90833e-14 0
rhumerus -43.8993 13.4328 -88.7365
rradius 39.4861 -0 0
rwrist -21.5183 0 0
rhand -30.6611 -22.951 -0.000348262
rfingers 7.12502 -0 0
rthumb -3.95581 -52.894 -0.0003392
